<?xml version="1.0" encoding="utf-8"?>
<!-- Generator: Adobe Illustrator 16.0.4, SVG Export Plug-In . SVG Version: 6.00 Build 0)  -->
<!DOCTYPE svg PUBLIC "-//W3C//DTD SVG 1.1//EN" "http://www.w3.org/Graphics/SVG/1.1/DTD/svg11.dtd">
<svg version="1.1" id="Layer_1" xmlns="http://www.w3.org/2000/svg" xmlns:xlink="http://www.w3.org/1999/xlink" x="0px" y="0px"
	 width="612px" height="792px" viewBox="0 0 612 792" enable-background="new 0 0 612 792" xml:space="preserve">
<g>
	
	<path fill-rule="evenodd" clip-rule="evenodd" fill="#FEDCB9" d="M446.715,401.482c-9.707,5.189-20.434,4.25-30.866,5.395
		c-12.844,1.41-25.831,0.355-38.607,2.715c-3.255,0.601-6.704,0.079-9.993,0.923c-6.491,0.877-12.911-0.093-19.338-0.741
		c-2.047-2.326-1.934-3.56,1.174-4.733c5.066-1.915,8.114-5.779,11.002-9.985c-2.782,2.607-4.585,6.283-8.693,7.285
		c-2.146,0.188-3.54-0.621-3.829-2.896c-0.109-0.863-0.301-1.688-1.167-2.142c-0.309-0.181-0.589-0.395-0.854-0.631
		c-0.391-0.407-0.544-0.9-0.523-1.454c0.056-0.344,0.173-0.668,0.35-0.97c0.902-1.181,2.087-2.173,2.492-3.695
		c1.8-3.844,4.9-6.801,7.08-10.393c1.222-2.014,2.286-4.097,3.288-6.222c0.136-0.327,0.296-0.641,0.459-0.954
		c1.516-2.562,1.626-5.424,1.76-8.281c0.125-0.564,0.4-1.036,0.848-1.402c1.479,0.912,3.123,0.737,4.729,0.657
		c13.124-0.647,26.209-1.601,39.401-1.155c9.378,0.316,18.614-2.405,27.921-3.718c3.234-0.457,6.453-0.753,9.545,0.527
		c1.796,0.743,3.225,1.98,3.076,4.203c-0.162,2.42-2.191,1.373-3.439,1.791c-1.555,0.521-3.145,0.72-4.773,0.672
		c-6.253,2.476-12.922,1.872-19.408,2.629c-3.013,0.344-5.971,1.15-9.029,1.09c-3.494-0.298-6.935,0.76-9.188,0.423
		c3.445-0.304,8.15-0.29,12.838-0.667c1.88-0.466,3.838-0.396,5.721-0.849c6.37-0.209,12.673-1.531,19.078-1.14
		c1.242-0.005,2.494,0.082,3.727-0.036c2.461-0.234,3.943,0.14,3.85,3.279c-0.117,3.958,3.164,2.959,5.174,2.489
		c2.449-0.573,4.669-0.563,6.879,0.43c6.082,2.733,7.379,7.804,3.794,14.202c-1.424,2.54-3.823,4.222-5.456,6.562
		c-4.568,1.071-9.236,1.48-13.888,1.931c-6.298,0.609-12.653,0.499-18.933,1.403c-7.228,0.297-14.473,0.311-21.664,1.224
		c-5.249,0.146-10.458,1.003-14.13,1.091c4.957-0.522,11.516-0.761,18.044-1.478c5.392-0.525,10.801-0.578,16.207-0.702
		c1.477-0.033,2.961,0.111,4.379-0.454c6.852-0.542,13.713-0.515,20.563-0.105c1.167,0.069,3.249-0.424,3.367,1.431
		C449.772,400.513,447.967,400.945,446.715,401.482z"/>
	<path fill-rule="evenodd" clip-rule="evenodd" fill="#FEDCB9" d="M160.225,410.458c1.047-3.352,4.1-3.168,6.677-3.652
		c1.448-0.272,2.986-0.078,4.485-0.077c1.204,0,2.288-0.119,2.328-1.711c0.032-1.275,0.143-2.509-1.563-2.91
		c-1.57-0.369-3.09-0.947-4.649-1.371c-4.894-1.332-9.27-3.679-13.059-7.001c-4.417-3.873-4.198-8.257,0.392-11.992
		c2.061-1.678,4.379-2.845,6.948-3.5c11.362-2.899,22.949-3.917,34.629-4.588c15.75-0.905,31.551-1.007,47.247-2.848
		c7.392-0.867,14.805-1.547,22.203-2.354c0.569-0.062,1.102-0.461,1.651-0.702c4.578,0.581,9.104,0.815,13.68-0.381
		c2.852-0.746,3.815,0.45,2.752,3.247c-1.953,5.135-4.001,10.233-5.938,15.375c-2.245,5.961-4.623,11.872-6.69,17.9
		c-0.406,1.184-0.951,2.311-1.537,3.415c-2.403,4.528-4.511,4.714-7.758,0.725c-0.859-1.055-1.377-2.387-2.561-3.204
		c-0.719,3.857,1.719,8.249,5.208,9.42c2.742,0.92,5.042-0.172,6.903-3.647c3.426-6.397,6.062-13.147,8.498-19.973
		c0.503-1.41,0.834-2.879,1.585-4.193c1.222-2.159,1.96-4.53,2.931-6.799c0.367-0.778,0.759-1.546,1.141-2.319
		c1.291-1.723,1.29-3.861,1.854-5.823c3.49-6.178,8.751-8.593,14.435-6.637c2.425,1.667,4.8-0.187,7.22-0.16
		c14.328,0.16,28.659,0.072,42.99,0.067c0.658,1.702-0.523,2.852-1.317,4.047c-4.921,7.405-8.783,15.337-11.749,23.698
		c-1.246,3.513-3.68,6.193-5.867,9.038c-2.123,2.761-4.109,5.644-6.484,8.198c-1.097,1.18-2.556,2.567-4.195,1.672
		c-1.891-1.033-0.759-2.887-0.264-4.348c0.558-1.646,1.184-3.282,2.076-4.789c0.658-1.002,1.282-2.022,1.406-3.26
		c0.128-0.838,0.357-1.641,0.813-2.361c0.62-1.006,0.922-1.959-0.437-2.643c-0.298-0.116-0.588-0.237-0.886-0.344
		c-1.265-0.431-2.624-0.165-3.892-0.547c-1.542-0.606-1.864-1.704-1.412-3.228c0.207-0.698,1.084-1.684-0.205-2.132
		c-0.932-0.324-1.512,0.535-2.035,1.208c-0.838,1.155-0.539,2.39-0.251,3.625c0.079,0.516,0.048,1.022-0.092,1.525
		c-0.955,2.298-2.692,4.133-3.744,6.375c-1.488,2.288-2.922,4.65-5.045,6.403c-2.05,1.693-3.521,1.102-3.704-1.562
		c-0.231-3.37,0.486-6.657,1.596-9.844c0.366-1.054,0.832-2.072,1.202-3.126c0.374-1.065,0.771-2.201-0.285-3.091
		c-1.078-0.906-2.091-0.271-3.057,0.335c-0.631,0.396-1.244,0.825-2.022,0.875c-1.109-0.256-1.394-1.27-1.896-2.083
		c-2.173-3.516-3.316-3.741-6.67-1.365c-0.909,0.645-1.729,1.356-2.308,2.315c-0.341,0.545-0.667,1.101-0.998,1.652
		c-0.64,0.893-1.154,1.851-1.45,2.921c-0.104,0.316-0.233,0.617-0.372,0.917c-1.514,3.491-2.312,7.069-1.399,10.862
		c0.11,0.293,0.204,0.596,0.301,0.893c0.26,0.709,0.553,1.4,1.174,1.89c0.938,0.397,1.826,0.522,2.565-0.374
		c0.264-0.439,0.523-0.877,0.82-1.296c2.468-2.779,4.451-5.923,6.737-8.835c0.515-0.655,1.229-1.371,2.205-0.949
		c0.8,0.347,0.952,1.272,0.689,1.916c-1.949,4.77-0.277,9.031,1.715,13.271c-3.291,2.355-7.318,1.064-10.857,2.209
		c-3.907,0.786-7.907,0.944-11.803,1.81c-7.312,2.432-15.001,1.882-22.498,2.848c-8.988,1.156-18.088,0.948-27.084,2.127
		c-3.81,0.498-7.666,0.34-11.517,0.763c-7.765,0.853-15.618,0.78-23.412,1.58c-3.983,0.407-7.814-1.149-11.749-1.629
		c-6.822-0.832-13.646-0.662-20.472-0.697c-1.504-0.008-3.083,0.16-3.139-1.611C160.857,416.549,159.471,413.584,160.225,410.458z"
		/>
	<path fill-rule="evenodd" clip-rule="evenodd" fill="#232322" d="M316.936,393.874c0-0.404,0.001-0.809,0.002-1.213
		c-0.455-1.349-0.481-2.698,0.011-4.045c0.817-0.704,0.634-2.569,2.391-2.156c0.937,0.221,2.023-0.741,2.761,0.19
		c0.78,0.987-0.355,1.755-0.659,2.595c-0.423,1.166-2.261,2.277,0.079,3.358c1.472,0.691,3.121-0.11,4.596,0.549l-0.068-0.053
		c1.701,0.841,2.363,2.07,1.455,3.887c-0.267,0.757-0.532,1.515-0.798,2.271c-0.78,0.905-1.035,2.045-1.401,3.136
		c-0.818,2.831-2.814,5.33-2.54,8.815c4.835-1.947,6.44-6.625,9.425-9.925c3.517-3.889,5.83-8.508,7.747-13.465
		c3.149-8.144,7.517-15.729,12.288-23.056c0.872-0.857,1.693-1.775,2.625-2.563c2.691-2.277,4.576-1.936,6.447,1.1
		c-0.006,0.483-0.014,0.966-0.02,1.449c-0.394,3.116-1.132,6.148-2.202,9.1l0.035-0.052c-0.813,0.788-1.645,1.403-2.101-0.266
		c-0.274-1.004,0.168-1.958,0.429-2.911c0.093-0.333,0.215-0.658,0.344-0.979c0.138-1.163,1.525-2.202,0.316-3.466
		c-1.768,0.756-2.439,2.461-3.236,3.926c-3.593,6.61-7.079,13.28-9.665,20.371c-1.217,2.182-0.537,4.934-2.09,7.019
		c-2.298,3.355-3.269,7.234-4.368,11.062c-0.385,0.951-0.888,1.834-1.522,2.641c-0.197,0.259-0.417,0.504-0.637,0.741
		c-0.889,1.001-1.049,2.274-1.301,3.511c-0.16,1.16,0.218,2.246,0.462,3.351c0.314,0.983-0.147,2.5,1.274,2.735
		c1.26,0.208,1.726-1.145,2.377-1.987c1.519-1.966,2.135-4.366,3.117-6.588c0.271-0.611,0.501-1.236,0.63-1.897
		c0.096-0.516,0.231-1.019,0.42-1.509c0.288-0.683,0.638-1.322,1.222-1.806c3.029-1.021,1.357,1.881,2.23,2.668
		c-0.031,0.605-0.282,1.127-0.623,1.613c-1.34,3.324-1.747,6.993-3.742,10.078c-1.478,2.285-3.162,4.305-6.265,3.628
		c-3.092-0.675-3.914-3.249-4.244-5.901c-0.259-2.082-0.102-4.217-0.129-6.326c-0.605-0.983-0.128-2.004-0.114-3.009
		c0.049-0.506,0.148-1.001,0.28-1.486c-0.004-0.532,0.634-1.243-0.183-1.527c-0.414-0.144-0.707,0.568-1.015,0.94
		c-0.945,1.186-2.029,2.233-3.127,3.269c-1.38,1.256-3.105,1.874-4.784,2.579c-0.526,0.201-1.054,0.401-1.58,0.604
		c-3.618-1.638-4.247-4.633-3.719-8.157c0.081-0.355,0.206-0.7,0.36-1.03c1.22-2.031,1.985-4.269,2.854-6.46
		c1.33-3.354,1.33-3.354-2.484-3.661c-0.37-0.057-0.72-0.168-1.061-0.322C316.938,394.907,316.563,394.524,316.936,393.874z"/>
	<path fill-rule="evenodd" clip-rule="evenodd" fill="#232222" d="M282.547,386.584c-2.521,7.743-5.77,15.201-9.077,22.625
		c-1.477,3.314-3.255,6.941-7.744,6.391c-4.417-0.543-6.378-3.977-7.476-7.925c-0.483-1.737-1.541-4.173,0.124-5.048
		c1.376-0.725,2.129,1.922,3.108,3.105c1.473,1.78,2.455,4.904,4.904,4.547c2.074-0.304,2.708-3.304,3.49-5.408
		c4.554-12.26,8.979-24.569,14.353-37.062c-3.871,0.256-7.252,1.638-10.819,1.65c-2.199,0.008-4.221-0.126-5.898-1.708
		c-0.592-2.542,1.441-2.563,2.912-2.808c3.917-0.649,7.878-1.039,11.795-1.686c2.443-0.403,5.227,0.029,6.775-2.883
		c0.462-0.869,2.15-1.099,3.094-0.378c3.879,2.964,8.31,1.368,12.499,1.691c1.581,0.122,3.179,0.02,5.335,0.02
		c-2.356,2.892-5.841,1.222-7.908,3.149c-2.927,0.426-5.867,0.785-8.779,1.3c-2.498,0.442-2.607,3.068-3.874,4.636
		c-0.428,0.53-0.587,1.302-1.289,1.655c-1.263,1.209-1.036,3.101-2.028,4.433c-0.29,0.811-1.833,0.984-1.155,2.286
		C283.812,381.547,282.674,383.905,282.547,386.584z"/>
	<path fill-rule="evenodd" clip-rule="evenodd" fill="#F8E0C8" d="M160.225,410.458c0.274,2.59,0.46,5.193,0.855,7.764
		c0.226,1.472,0.569,2.618,2.822,2.536c8.173-0.3,16.429-0.354,24.436,1.341c7.484,1.584,14.86,0.379,22.228,0.054
		c4.273-0.189,8.679-0.701,12.959-0.95c9.427-0.55,18.844-1.396,28.273-1.923c7.638-0.428,15.353-0.932,22.953-2.105
		c2.148-0.332,4.179-1.424,6.263-2.167c5.645,0.645,11.116-0.742,16.648-1.428c2.476,0.075,4.911-0.6,7.394-0.397
		c2.223,0.645,5.173-1.369,6.699,1.824l-0.367,0.012l-0.367-0.01c-1.916,0.974-4.101-0.273-6.014,0.729
		c-1.736,0.012-3.473,0.022-5.209,0.034c-1.151,0.825-2.633-0.15-3.78,0.693c-11.36,0.982-22.718,1.989-34.082,2.938
		c-6.921,0.577-13.847,1.097-20.775,1.587c-14.229,1.008-28.463,1.93-42.688,2.996c-4.305,0.323-8.382-0.761-12.532-1.469
		c-7.045-1.202-14.154-0.803-21.235-0.709c-3.167,0.041-5.086-0.459-4.477-4.189C160.615,415.246,158.296,412.852,160.225,410.458z"
		/>
	<path fill-rule="evenodd" clip-rule="evenodd" fill="#FEFCF6" d="M446.715,401.482c0.589-1.046,2.311-1.059,2.416-2.969
		c-7.82,0-15.592,0-23.364,0c-1.33,0.142-3.294,1.549-3.018-1.514c10.952-1.374,21.988-1.556,32.984-2.31
		c-2.165,3.238-5.572,0.578-8.183,1.816c0.803,1.163,3.742,0.188,3.212,2.441C450.379,400.582,448.758,401.733,446.715,401.482z"/>
	<path fill-rule="evenodd" clip-rule="evenodd" fill="#FEF8E6" d="M437.766,367.763c-6.43,1.482-12.969,1.545-19.515,1.5
		c-0.189-0.168-0.252-0.336-0.189-0.503c0.063-0.167,0.126-0.252,0.189-0.252c6.501-0.744,13.002-1.486,19.503-2.229
		C438.111,366.771,435.285,367.288,437.766,367.763z"/>
	<path fill-rule="evenodd" clip-rule="evenodd" fill="#FEF7E6" d="M347.102,408.979c6.746,0.121,13.365,1.903,20.146,1.536
		c-3.414,1.54-7.016,0.38-10.514,0.728c-2.264-0.731-4.523-0.345-6.809-0.088c-1.059,0.119-2.369,1.199-3.234-0.432
		C346.665,410.104,346.494,409.449,347.102,408.979z"/>
	<path fill-rule="evenodd" clip-rule="evenodd" fill="#F0F0F0" d="M276.422,436.917c0.612-1.44,1.527-2.022,2.826-0.797
		c0.964,0.91,2.399,1.908,1.357,3.427c-0.992,1.446-2.526,1.965-4.222,0.887C275.926,439.256,274.4,438.066,276.422,436.917z"/>
	<path fill-rule="evenodd" clip-rule="evenodd" fill="#F4E1CE" d="M311.755,415.006c-2.116-1.521-4.532-0.402-6.78-0.772
		c0.098-1.575,1.404-1.692,2.428-1.687c3.346,0.021,6.641-0.701,9.987-0.575c1.04,0.423,2.107,0.833,1.67,2.321
		C316.728,415.581,314.191,414.787,311.755,415.006z"/>
	<path fill-rule="evenodd" clip-rule="evenodd" fill="#EDDECD" d="M332.641,410.511c0.171,1.079-0.213,2.04-0.634,2.993
		c-2.98,0.256-5.962,0.51-8.942,0.766c1.463-1.035,2.925-2.071,4.387-3.106C329.23,411.336,330.89,410.56,332.641,410.511z"/>
	<path fill-rule="evenodd" clip-rule="evenodd" fill="#F3F3F3" d="M295.139,440.477c-1.141-1.41-0.804-2.802,0.051-4.187
		c1.272-1.31,2.221-0.628,3.095,0.505l-0.066-0.081c1.644,1.063,1.192,2.179,0.084,3.313
		C297.349,440.882,296.32,441.22,295.139,440.477z"/>
	<path fill-rule="evenodd" clip-rule="evenodd" fill="#252423" d="M319.06,414.293c-0.36-0.538-0.722-1.076-1.082-1.615
		c-0.601-0.357-0.923-0.904-1.083-1.566c-0.044-1.881-0.86-3.978,1.433-5.215c-0.05,3.379,0.379,6.591,3.157,8.977
		C320.637,414.842,319.701,415.186,319.06,414.293z"/>
	<path fill-rule="evenodd" clip-rule="evenodd" fill="#EFE3D8" d="M346.869,410.264c1.68,1.62,3.486-0.328,5.26,0.197
		c1.481,0.438,3.243-0.566,4.605,0.781c-3.504-0.458-6.866,0.949-10.348,0.783c-0.031-0.472-0.062-0.943-0.093-1.415
		C346.402,410.355,346.59,410.232,346.869,410.264z"/>
	<path fill-rule="evenodd" clip-rule="evenodd" fill="#A2A2A2" d="M270.551,435.569c0.963,1.768,0.871,3.579,0.326,5.89
		C269.272,439.312,269.815,437.443,270.551,435.569z"/>
	<path fill-rule="evenodd" clip-rule="evenodd" fill="#636363" d="M260.752,438.249c-0.974,1.186-3.32,0.421-3.553,2.748
		c0.198-2.018-1.129-4.175,0.64-5.583c0.541-0.431,2.392-0.984,3.009,0.771C259.651,436.818,259.808,437.516,260.752,438.249z"/>
	<path fill-rule="evenodd" clip-rule="evenodd" fill="#F8F8F8" d="M332.629,436.045c1.038,0.084,2.521-1.221,2.985,0.688
		c0.591,2.433-1.831,1.525-2.779,2.273C331.849,438.084,331.957,437.084,332.629,436.045z"/>
	<path fill-rule="evenodd" clip-rule="evenodd" fill="#A1A1A1" d="M332.629,436.045c0.068,0.987,0.137,1.975,0.206,2.962
		c-0.325,0.658,0.327,1.998-0.978,1.907c-0.92-0.063-0.809-1.383-0.552-1.756C331.975,438.184,329.601,435.908,332.629,436.045z"/>
	<path fill-rule="evenodd" clip-rule="evenodd" fill="#636363" d="M316.194,438.982c-1.45-0.28-2.108,0.584-2.673,1.834
		c-0.075-1.871-0.947-3.854,0.369-5.352c0.421-0.479,2.528-1.083,3.198,0.807C315.35,436.7,316.457,438.066,316.194,438.982z"/>
	<path fill-rule="evenodd" clip-rule="evenodd" fill="#EFEFEF" d="M316.194,438.982c-0.243-1.161-2.892-0.373-2.002-2.287
		c0.585-1.256,1.856-0.711,2.896-0.424C317.272,437.334,317.935,438.555,316.194,438.982z"/>
	<path fill-rule="evenodd" clip-rule="evenodd" fill="#EEEEEE" d="M260.752,438.249c-1.034-0.24-2.925,0.8-2.818-1.176
		c0.101-1.877,1.813-0.926,2.914-0.89C261.146,436.888,261.91,437.613,260.752,438.249z"/>
	<path fill-rule="evenodd" clip-rule="evenodd" fill="#D8D8D8" d="M324.825,436.279c0.447,1.143,2.261,1.481,1.178,2.983
		c-0.186,0.256-1.279,0.21-1.646-0.083C323.104,438.182,324.192,437.366,324.825,436.279z"/>
	<path fill-rule="evenodd" clip-rule="evenodd" fill="#737373" d="M309.271,439.896c0.164,0.966-0.597,1.244-1.523,1.261
		c-0.249,0.004-1.222-0.303-0.596-0.461c1.841-0.464-0.076-1.99,0.816-2.31C308.886,438.059,309.142,438.91,309.271,439.896z"/>
	<path fill-rule="evenodd" clip-rule="evenodd" fill="#5B5B5B" d="M344.696,437.372c0.04-0.56,0.081-1.12,0.121-1.681
		c0.146,0.001,0.294,0.002,0.44,0.003c0,1.702,0,3.403,0,5.125c-1.107-0.552-0.295-1.646-0.562-2.442
		C344.317,438.043,344.317,437.707,344.696,437.372z"/>
	<path fill-rule="evenodd" clip-rule="evenodd" fill="#454545" d="M341.054,438.35c-0.068,0.809-0.137,1.617-0.204,2.426
		c-0.133,0.001-0.266,0.002-0.397,0.004c0-1.689,0-3.377,0-5.08c1.073,0.188,0.288,1.171,0.602,1.701
		C341.433,437.717,341.433,438.033,341.054,438.35z"/>
	<path fill-rule="evenodd" clip-rule="evenodd" fill="#515151" d="M287.221,435.702c0.602,1.767,0.741,3.437,0,5.099
		C287.221,439.102,287.221,437.402,287.221,435.702z"/>
	<path fill-rule="evenodd" clip-rule="evenodd" fill="#F9E1C8" d="M305.007,415.736c1.855-1.474,4.017-0.418,6.014-0.729
		C309.159,416.434,307.008,415.468,305.007,415.736z"/>
	<path fill-rule="evenodd" clip-rule="evenodd" fill="#646464" d="M276.422,436.917c-1.194,1.159-0.019,2.345-0.039,3.517
		C275.283,439.249,273.646,438.059,276.422,436.917z"/>
	<path fill-rule="evenodd" clip-rule="evenodd" fill="#848484" d="M352.763,438.905c-0.206,0.719,0.403,2.195-0.833,1.922
		c-0.854-0.188-0.401-1.687-0.231-2.621C352.271,438.107,352.591,438.395,352.763,438.905z"/>
	<path fill-rule="evenodd" clip-rule="evenodd" fill="#8D8D8D" d="M298.456,439.811c0.106-1.047,0.341-2.103-0.237-3.097
		c2.22,0.583,2.086,1.66,0.633,3.015C298.72,439.756,298.588,439.783,298.456,439.811z"/>
	<path fill-rule="evenodd" clip-rule="evenodd" fill="#777777" d="M298.456,439.811c0.14,0.008,0.271-0.019,0.396-0.082
		c-0.938,1.736-2.097,2.38-3.713,0.748C296.292,440.491,297.443,440.494,298.456,439.811z"/>
	<path fill-rule="evenodd" clip-rule="evenodd" fill="#747474" d="M298.285,436.795c-0.919-0.861-1.967-0.93-3.095-0.506
		C296.489,434.671,297.396,434.818,298.285,436.795z"/>
	<path fill-rule="evenodd" clip-rule="evenodd" fill="#636363" d="M352.763,438.905c-0.355-0.232-0.71-0.466-1.065-0.699
		c-0.275-0.203-0.653-0.35-0.803-0.622c-0.219-0.397,0.32-0.715,0.416-0.478C351.623,437.884,353.689,437.229,352.763,438.905z"/>
	<path fill-rule="evenodd" clip-rule="evenodd" fill="#646464" d="M341.054,438.35c0-0.316,0-0.633,0-0.949
		c1.214-0.01,2.429-0.019,3.643-0.027c0,0.334,0,0.669,0,1.004C343.482,438.368,342.268,438.358,341.054,438.35z"/>
	<path fill-rule="evenodd" clip-rule="evenodd" fill="#F9E1C8" d="M296.018,416.464c1.081-1.204,2.504-0.544,3.78-0.694
		C298.707,416.925,297.302,416.363,296.018,416.464z"/>
	<path fill-rule="evenodd" clip-rule="evenodd" fill="#2C2620" d="M346.869,410.264c-0.202,0.099-0.394,0.214-0.575,0.347
		c-0.691-0.653,1.431-2.993-1.412-2.358c-1.071-2.211-1.285-4.656-1.663-7.01c-0.305-1.901-0.061-3.982,2.363-4.738
		c0.174,0.063,0.302,0.012,0.383-0.156c1.608,0.38,2.145,1.692,2.082,3.032c-0.147,3.168,1.42,3.108,3.62,2.183
		c4.188-1.609,5.94-6.009,9.689-8.176c-2.408,5.571-5.634,10.447-11.863,12.282c-1.964,0.578-2.769,1.352-2.392,3.311
		C347.024,409.407,346.947,409.836,346.869,410.264z"/>
	<path fill-rule="evenodd" clip-rule="evenodd" fill="#2A241E" d="M358.055,369.896c0.32,1.017-0.066,1.921-0.365,2.875
		c-0.491,1.561,0.534,1.245,1.418,1.025c-2.326,6.443-6.836,11.514-10.687,16.999c-0.648,1.603-1.983,2.639-3.15,3.812l0.047-0.056
		c-0.476,1.344-0.881,2.763-2.784,2.543c1.468-1.993-0.108-4.992,2.215-6.702c1.44-3.338,3.998-5.896,6.115-8.762
		c1.987-2.693,3.49-5.664,4.826-8.728C356.209,371.713,356.364,370.186,358.055,369.896z"/>
	<path fill-rule="evenodd" clip-rule="evenodd" fill="#F8D9BB" d="M342.533,397.096c0.928-0.848,1.856-1.694,2.784-2.543
		c0.088,0.65,0.176,1.3,0.265,1.951c-1.789,2.004-1.861,4.35-0.966,6.655c0.675,1.736,0.537,3.378,0.266,5.093
		c-0.25,0.539-0.499,1.078-0.749,1.617c-2.189,0.18-4.449,0.814-6.328-0.991C338.892,404.754,339.681,400.511,342.533,397.096z"/>
	<path fill-rule="evenodd" clip-rule="evenodd" fill="#FEF6E7" d="M422.749,397c0.247,2.019,1.851,1.329,3.018,1.514
		c-2.542,1.523-5.321,0.563-7.979,0.681c-4.336,0.191-8.686,0.072-13.029,0.085c-1.352,0.227-2.854,1.193-3.752-0.775
		C408.269,398.217,415.453,396.797,422.749,397z"/>
	<path fill-rule="evenodd" clip-rule="evenodd" fill="#FEE7CD" d="M401.006,398.504c1.047,1.244,2.497,0.539,3.752,0.774
		c-0.191,0.158-0.381,0.453-0.572,0.454c-6.56,0.032-13.074,1.331-20.519,0.896C389.918,398.936,395.561,399.553,401.006,398.504z"
		/>
	<path fill-rule="evenodd" clip-rule="evenodd" fill="#FDEAD2" d="M413.016,370.013c-4.939,1.672-9.969,0.259-14.984,0.155
		c3.742-0.305,7.484-0.609,11.227-0.914C410.374,370.179,411.896,369.101,413.016,370.013z"/>
	<path fill-rule="evenodd" clip-rule="evenodd" fill="#F8D9BB" d="M351.667,401.562c-2.384,1.837-4.144,2.355-3.992-1.742
		c0.051-1.388-0.636-2.562-1.71-3.473c1.73-0.111,2.63,0.791,2.492,2.432C348.245,401.305,349.709,401.662,351.667,401.562z"/>
	<path fill-rule="evenodd" clip-rule="evenodd" fill="#FDF6DF" d="M413.016,370.013c-1.262-0.212-2.707,0.491-3.758-0.758
		c3.057,0.464,5.958-0.948,8.993-0.748c0,0.252,0,0.503,0,0.755C416.67,370.655,414.754,369.722,413.016,370.013z"/>
	<path fill-rule="evenodd" clip-rule="evenodd" fill="#2A241E" d="M359.073,373.849c-0.153-3.248,1.584-6.039,2.202-9.1
		C361.704,368.063,360.976,371.098,359.073,373.849z"/>
	<path fill-rule="evenodd" clip-rule="evenodd" fill="#F8D9BB" d="M345.271,394.608c0.748-1.521,1.847-2.752,3.15-3.812
		C348.387,392.906,347.033,393.926,345.271,394.608z"/>
	<path fill-rule="evenodd" clip-rule="evenodd" fill="#FEDCB9" d="M213.69,412.746c-2.669,0.061-5.196,0.171-4.271,4.129
		c0.357,1.526-1.04,2.029-2.161,1.818c-5.55-1.044-12.066,1.145-16.442-3.766c-3.498-3.925-4.396-2.086-5.551,1.463
		c-0.401,1.229-1.768,1.512-3.122,1.641c-4.855,0.463-9.916-1.757-14.598,1.093c-0.208,0.127-0.872-0.041-0.953-0.229
		c-0.829-1.928,1.283-3.76,0.246-5.865c-0.138-0.281,1.901-1.163,3.275-0.643c2.876,1.092,5.852-0.069,8.814,0.149
		c2.61,0.193,1.445-2.897,1.971-4.464c0.353-1.053-0.336-2.416-0.378-3.647c-0.1-2.951-0.622-5.052-4.118-2.613
		c-0.737,0.514-1.424,0.405-1.772-0.513c-1.336-3.527-4.048-5.2-7.607-5.946c-1.292-0.27-3.042-0.806-3.093-2.293
		c-0.042-1.208,1.681-1.015,2.681-1.386c2.639-0.98,2.877-3.131,2.41-5.526c-0.762-3.912-0.466-4.304,3.322-3.727
		c1.861,0.284,2.181-1.186,3.061-2.155c1.669-1.841,2.805-5.44,6.334-2.252c0.295,0.267,1.035,0.313,1.438,0.146
		c5.37-2.226,10.776,0.2,16.087-0.187c7.072-0.514,14.26,1.671,21.213-0.935c0.857-0.32,1.701-0.323,2.556,0.001
		c2.763,1.05,5.494,1.345,8.268-0.069c0.613-0.313,1.609-0.442,2.189-0.161c5.411,2.618,11.249-0.973,16.661,1.216
		c3.229-2.838,7.142-0.624,10.616-1.458c1.917-0.46,3.806-1.322,4.412-3.603c0.315-1.187,0.505-2.592,2.021-2.849
		c1.944-0.33,1.393,1.645,2.115,2.42c1.757,1.884,4.072,3.211,5.037,5.849c0.923,2.525,1.097,4.262-2.457,3.699
		c-1.216-0.192-2.699,0.106-2.663,1.361c0.09,3.069-1.998,3.921-4.129,5.05c-2.802,1.484-3.066,6.412-0.494,8.394
		c0.583,0.45,1.438,0.577,1.134,1.569c-0.226,0.738-0.919,0.709-1.532,0.788c-2.305,0.293-4.458,1.021-6.962,0.296
		c-3.558-1.027-6.04,1.171-6.231,4.926c-0.082,1.619-0.014,3.246-0.016,4.87c-0.006,3.983-0.549,4.562-4.432,3.328
		c-1.901-0.604-3.14-0.195-3.593,1.339c-0.726,2.463-3.62,2.53-4.547,4.7c-0.357,0.835-1.17,0.415-1.863-0.1
		c-2.155-1.604-4.704-1.517-7.185-1.301c-2.484,0.215-4.969,1.829-7.232-0.899c-0.819-0.988-1.551,0.774-2.419,1.115
		c-1.828,0.717-3.521,0.228-2.969-1.654C217.788,412.366,215.83,412.688,213.69,412.746z"/>
	<path fill-rule="evenodd" clip-rule="evenodd" fill="#242322" d="M302.173,390.19c0.675-0.535,1.349-1.07,2.023-1.604
		c1.254-0.995,2.59-1.575,4.039-0.446c1.521,1.186,1.596,2.643,0.682,4.283c-2.222,3.984-2.826,8.4-3.309,12.835
		c-0.075,0.692-0.32,1.575,0.44,2.012c0.861,0.496,1.394-0.328,1.821-0.848c1.756-2.133,3.437-4.328,5.144-6.5
		c1.006-0.714,2.027-1.478,2.173,0.657c-1.423,4.374-4.524,7.585-7.536,10.862c-1.283,1.031-2.585,1.928-4.171,0.523
		c-5.246-4.027-3.436-9.263-2.021-15.354c-3.743,3.945-5.294,8.427-9.116,10.923c-2.048,1.419-3.866,1.102-5.484-0.726l0.049,0.062
		c-1.212-4.535,0.205-8.784,1.419-13.056l-0.072,0.079c0.988-0.854,1.132-2.134,1.636-3.233c0.004-0.521,0.058-1.015,0.647-1.228
		c1.5-1.682,3.242-3.067,5.268-4.04c1.062-0.51,2.419-0.623,3.044,0.455c0.555,0.957-0.745,1.353-1.372,1.86
		c-0.886,0.717-1.681,1.486-2.075,2.583c-0.122,0.315-0.271,0.621-0.426,0.92c-0.677,1.127-1.071,2.36-1.313,3.647
		c-0.213,0.794-0.543,1.541-0.899,2.278c-0.53,1.009-1.013,2.037-1.271,3.157c-0.027,1.097-0.835,2.319,0.551,3.146
		c3.015-3.755,6.389-7.251,7.59-12.111C299.985,389.85,300.462,388.634,302.173,390.19z"/>
	<path fill-rule="evenodd" clip-rule="evenodd" fill="#FDFBF3" d="M303.479,411.965c1.458,0.273,2.706-0.206,3.846-1.072
		c2.01-0.599,4.039-1.145,6.136-1.276c1.594-0.101,3.273-0.237,4.176,1.577c0.113,0.494,0.228,0.99,0.341,1.484
		c-4.251,1.217-8.782,0.079-13.002,1.556c-2.49,0.009-4.98,0.019-7.469,0.027c-1.553,0.057-3.336,1.485-4.502-0.757
		C296.496,412.99,299.988,412.478,303.479,411.965z"/>
	<path fill-rule="evenodd" clip-rule="evenodd" fill="#FEDCB9" d="M160.547,387.438c-0.509,1.408,0.284,2.32,0.695,3.321
		c0.329,0.799,0.846,1.69-0.212,2.24c-0.929,0.482-1.734-0.165-2.199-0.881c-0.792-1.222-1.524-2.513-2.06-3.862
		c-0.452-1.136-0.653-2.494,0.214-3.507c0.703-0.822,1.85-0.644,2.755-0.234C161.246,385.194,161.06,386.396,160.547,387.438z"/>
	<path fill-rule="evenodd" clip-rule="evenodd" fill="#252422" d="M294.753,391.122c-0.811-3.045,1.913-3.715,3.642-5.195
		c-3.649-0.84-5.226,2.497-7.856,3.507c0.887-2.299,3.028-3.257,4.914-4.397c2.076-1.254,3.845-0.557,5.008,1.503
		c0.658,1.168,1.148,2.431,1.713,3.65c-1.829-0.69-1.699,0.604-1.743,1.721c-0.377,0.014-0.836-0.087-0.926-0.403
		c-0.94-3.296-2.431-2.361-4.075-0.578C295.277,391.095,295,391.11,294.753,391.122z"/>
	<path fill-rule="evenodd" clip-rule="evenodd" fill="#FDF0DC" d="M293.004,413.504c1.314,1.361,3.004,0.488,4.502,0.757
		c-5.471,0.843-10.904,2.512-16.492,0.746C285.01,414.506,289.007,414.005,293.004,413.504z"/>
	<path fill-rule="evenodd" clip-rule="evenodd" fill="#2D2620" d="M314.743,400.609c-0.071-1.498-1.056-0.702-1.729-0.688
		c1.308-2.017,2.614-4.032,3.922-6.048c0.37,0.334,0.74,0.668,1.11,1.003C318.03,397.413,317.644,399.734,314.743,400.609z"/>
	<path fill-rule="evenodd" clip-rule="evenodd" fill="#252422" d="M288.327,393.815c-0.359,4.364-1.975,8.591-1.419,13.056
		C284.705,402.229,286.385,398.008,288.327,393.815z"/>
	<path fill-rule="evenodd" clip-rule="evenodd" fill="#483C30" d="M282.547,386.584c-1.613-3.227,0.312-5.447,2.184-7.684
		c0.484,0.06,0.472,0.52,0.662,0.818C284.444,382.007,283.496,384.295,282.547,386.584z"/>
	<path fill-rule="evenodd" clip-rule="evenodd" fill="#FEDCB9" d="M168.499,407.825c1.437-0.121,2.99-1.008,3.638,0.826
		c0.197,0.558,0.133,1.349-0.562,1.56C169.501,410.838,169.512,408.636,168.499,407.825z"/>
	<path fill-rule="evenodd" clip-rule="evenodd" fill="#252422" d="M286.858,406.809c1.744,0.881,3.632,0.667,5.484,0.726
		c-0.058,0.351-0.116,0.7-0.173,1.051c-1.405,1.232-2.856,1.154-4.341,0.154C287.505,408.096,287.182,407.452,286.858,406.809z"/>
	<path fill-rule="evenodd" clip-rule="evenodd" fill="#5D5145" d="M285.358,377.016c-0.005-2.062,0.955-3.552,2.713-4.567
		c-0.003,1.91-0.406,3.682-1.767,5.123C285.891,377.555,285.734,377.098,285.358,377.016z"/>
	<path fill-rule="evenodd" clip-rule="evenodd" fill="#FEDCB9" d="M255.844,371.833c0.539,0.143,0.936,0.584,1.023,1.251
		c0.067,0.504-0.001,1.142-0.659,1.04c-0.845-0.131-1.036-0.96-1.164-1.678C254.972,372.035,255.246,371.761,255.844,371.833z"/>
	<path fill-rule="evenodd" clip-rule="evenodd" fill="#2D2620" d="M327.502,396.987c0.262-1.574-0.384-2.81-1.455-3.887
		C329.06,393.451,329.202,394.875,327.502,396.987z"/>
	<path fill-rule="evenodd" clip-rule="evenodd" fill="#2D2214" d="M285.358,377.016c0.315,0.186,0.631,0.37,0.946,0.556
		c-0.304,0.715-0.607,1.431-0.912,2.147c-0.22-0.272-0.441-0.544-0.662-0.817C283.969,377.949,284.789,377.524,285.358,377.016z"/>
	<path fill-rule="evenodd" clip-rule="evenodd" fill="#F8DDC3" d="M287.828,408.739c1.461,0.346,2.905,0.224,4.341-0.153
		C290.787,410.443,289.331,410.246,287.828,408.739z"/>
	<path fill-rule="evenodd" clip-rule="evenodd" fill="#2D2620" d="M326.115,393.153c-1.55-0.031-3.182,0.625-4.596-0.549
		C323.08,392.551,324.656,392.359,326.115,393.153z"/>
	<path fill-rule="evenodd" clip-rule="evenodd" fill="#252423" d="M325.303,402.394c-0.143-1.317,0.015-2.501,1.401-3.136
		C326.508,400.424,326.072,401.483,325.303,402.394z"/>
	<path fill-rule="evenodd" clip-rule="evenodd" fill="#2D2620" d="M316.948,388.616c-0.004,1.348-0.008,2.696-0.011,4.045
		C315.83,391.31,315.85,389.961,316.948,388.616z"/>
	<path fill-rule="evenodd" clip-rule="evenodd" fill="#252422" d="M289.891,390.662c0.026,1.366-0.2,2.605-1.635,3.233
		C288.489,392.659,288.912,391.52,289.891,390.662z"/>
	<path fill-rule="evenodd" clip-rule="evenodd" fill="#FADABA" d="M314.743,400.609c1.688-1.573,2.16-3.846,3.303-5.732l0.193-0.042
		c4.558,0.607,4.632,0.637,2.855,5.07c-0.818,2.042-1.181,4.32-2.777,6.01l0.01-0.019c-1.146,1.646-0.673,3.504-0.69,5.297
		c-1.971-1.061-3.988-0.826-6.041-0.274c-1.414,0.38-2.853,0.645-4.271-0.027C310.077,407.666,312.812,404.428,314.743,400.609z"/>
	<path fill-rule="evenodd" clip-rule="evenodd" fill="#F8D9BA" d="M358.055,369.896c-2.684,6.943-6.842,13.011-11.302,18.89
		c-0.502,0.662-1.328,1.078-2.005,1.607c-0.793-1.967,0.826-3.26,1.454-4.771c2.639-6.35,5.587-12.562,9.33-18.353
		c0.759-1.173,1.297-2.82,3.271-2.451c1.301,1.931-0.422,3.419-0.748,5.111V369.896z"/>
	<path fill-rule="evenodd" clip-rule="evenodd" fill="#FAFAF9" d="M343.253,412.755c-0.501,2.75-1.84,5.142-3.279,7.47
		c-0.833,1.348-1.69,3.288-3.524,2.811c-2.029-0.53-1.154-2.707-1.37-4.221c0.374-0.933-0.224-1.848-0.051-2.778
		c0.139-1.422,0.534-2.729,1.634-3.733C338.873,412.233,341.23,410.07,343.253,412.755z"/>
	<path fill-rule="evenodd" clip-rule="evenodd" fill="#FCFBF5" d="M337.805,408.878c2.08,0.517,4.44-0.753,6.328,0.991
		c-0.097,0.453-0.193,0.906-0.291,1.359c-2.385,0.633-4.77,1.412-7.172,0.061C337.048,410.485,337.427,409.682,337.805,408.878z"/>
	<path fill-rule="evenodd" clip-rule="evenodd" fill="#2D2620" d="M318.317,405.915c1.321-3.297,2.643-6.593,3.999-9.977
		c-1.208-0.9-2.945,0.03-4.076-1.104c1.115-0.021,2.234-0.097,3.347-0.045c0.891,0.043,2.144,0.448,1.604,1.438
		C321.46,399.407,321.362,403.414,318.317,405.915z"/>
	<path fill-rule="evenodd" clip-rule="evenodd" fill="#FDFBF3" d="M332.641,410.511c-1.529,1.809-3.242,2.167-5.189,0.652
		c0.84-1.153,1.717-2.267,3.045-2.907c0.911-0.13,1.753-0.048,2.357,0.766C332.782,409.518,332.712,410.015,332.641,410.511z"/>
	<path fill-rule="evenodd" clip-rule="evenodd" fill="#EEDCCA" d="M336.67,411.289c2.391-0.02,4.781-0.041,7.172-0.061
		c-0.196,0.509-0.393,1.018-0.589,1.526c-2.2,0.009-4.4,0.016-6.601,0.023c-0.551-0.444-0.605-0.975-0.275-1.573L336.67,411.289z"/>
	<path fill-rule="evenodd" clip-rule="evenodd" fill="#E3CFBC" d="M332.854,409.021c-0.834-0.107-1.771,0.103-2.357-0.767
		c0.039-0.115,0.079-0.231,0.118-0.347c0.433-1.294,1.208-3.033,2.524-2.397C334.381,406.111,333.527,407.854,332.854,409.021z"/>
	<path fill-rule="evenodd" clip-rule="evenodd" fill="#2B2B2B" d="M336.377,411.205c0.092,0.524,0.184,1.049,0.275,1.572
		c-0.328,1.223-0.658,2.443-0.986,3.665c-1.425,0.437-0.744-1.175-1.424-1.464C335.316,413.926,334.243,411.658,336.377,411.205z"/>
	<path fill-rule="evenodd" clip-rule="evenodd" fill="#2A241E" d="M358.055,369.93c0.039-1.734,1.127-3.315,0.747-5.111
		C360.68,366.834,359.287,368.37,358.055,369.93z"/>
	<path fill-rule="evenodd" clip-rule="evenodd" fill="#727272" d="M334.242,414.979c0.475,0.488,0.949,0.976,1.424,1.464
		c0.151,0.876,0.041,1.688-0.587,2.372C334.151,417.678,334.206,416.326,334.242,414.979z"/>
	<path fill-rule="evenodd" clip-rule="evenodd" fill="#E7C9AC" d="M294.753,391.122c0.269-0.396,0.548-0.783,0.804-1.187
		c0.706-1.114,1.329-2.652,2.797-2.524c1.896,0.163,1.093,2.067,1.489,3.209c0.154,0.444,0.389,0.862,0.587,1.291
		c-1.93,4.984-4.63,9.423-8.978,12.696c-0.428-1.368-0.647-2.754-0.358-4.183c0.142-1.206,0.761-2.261,1.086-3.41
		c0.297-0.688,0.594-1.376,0.891-2.064c0.571-1.277,0.597-2.789,1.653-3.858L294.753,391.122z"/>
	<path fill-rule="evenodd" clip-rule="evenodd" fill="#2D2721" d="M291.42,399.996c0.011,1.537,0.021,3.074,0.032,4.611
		c-1.207-1.389-1.534-2.91-0.7-4.608C290.974,399.635,291.196,399.65,291.42,399.996z"/>
	<path fill-rule="evenodd" clip-rule="evenodd" fill="#252422" d="M294.724,391.093c-0.551,1.286-1.102,2.572-1.653,3.858
		C292.983,393.392,293.09,391.915,294.724,391.093z"/>
	<path fill-rule="evenodd" clip-rule="evenodd" fill="#252422" d="M291.42,399.996c-0.223,0.002-0.445,0.002-0.668,0.003
		c0.103-1.173,0.533-2.189,1.428-2.984C292.386,398.126,291.804,399.035,291.42,399.996z"/>
</g>
</svg>
